# xmcd
#
# Track frame offsets:
#	150
#	20610
#	38875
#	61000
#
# Disc length: 1076 seconds
#
# Revision: 8
# Processed by: cddbd v1.4PL0 Copyright (c) Steve Scherf et al.
# Submitted via: dBpowerAMP V4.0
#
DISCID=29043204
DTITLE=Constantin - Nickel
DYEAR=1900
DGENRE=Rock
TTITLE0=Nickel
TTITLE1=Wham Bam Boy
TTITLE2=Un petit coup de blues
TTITLE3=Love finger
EXTD=
EXTT0=
EXTT1=
EXTT2=
EXTT3=
PLAYORDER=
